<mxfile host="app.diagrams.net" modified="2021-10-26T07:07:16.286Z" agent="5.0 (Macintosh; Intel Mac OS X 10_15_7) AppleWebKit/537.36 (KHTML, like Gecko) Chrome/94.0.4606.81 Safari/537.36" etag="2399QLkA8hJnEBkc-0zY" version="15.5.8" type="github">
  <diagram id="LCdV5woC0mCed40sGQCp" name="Page-1">
    <mxGraphModel dx="1218" dy="646" grid="1" gridSize="10" guides="1" tooltips="1" connect="1" arrows="1" fold="1" page="1" pageScale="1" pageWidth="827" pageHeight="1169" math="0" shadow="0">
      <root>
        <mxCell id="0" />
        <mxCell id="1" parent="0" />
        <mxCell id="BeVle-uXwxAkT7b3ATac-1" value="Service" style="rounded=1;whiteSpace=wrap;html=1;" vertex="1" parent="1">
          <mxGeometry x="290" y="130" width="186" height="40" as="geometry" />
        </mxCell>
        <mxCell id="BeVle-uXwxAkT7b3ATac-2" value="Deployment&lt;br&gt;(v1)" style="rounded=1;whiteSpace=wrap;html=1;" vertex="1" parent="1">
          <mxGeometry x="170" y="240" width="170" height="40" as="geometry" />
        </mxCell>
        <mxCell id="BeVle-uXwxAkT7b3ATac-3" value="Deployment&lt;br&gt;(v1)" style="rounded=1;whiteSpace=wrap;html=1;" vertex="1" parent="1">
          <mxGeometry x="414" y="240" width="170" height="40" as="geometry" />
        </mxCell>
        <mxCell id="BeVle-uXwxAkT7b3ATac-4" value="Pod" style="ellipse;whiteSpace=wrap;html=1;" vertex="1" parent="1">
          <mxGeometry x="110" y="340" width="80" height="50" as="geometry" />
        </mxCell>
        <mxCell id="BeVle-uXwxAkT7b3ATac-5" value="Pod" style="ellipse;whiteSpace=wrap;html=1;" vertex="1" parent="1">
          <mxGeometry x="200" y="340" width="80" height="50" as="geometry" />
        </mxCell>
        <mxCell id="BeVle-uXwxAkT7b3ATac-6" value="Pod" style="ellipse;whiteSpace=wrap;html=1;" vertex="1" parent="1">
          <mxGeometry x="290" y="340" width="80" height="50" as="geometry" />
        </mxCell>
        <mxCell id="BeVle-uXwxAkT7b3ATac-10" value="" style="endArrow=none;html=1;rounded=0;strokeColor=default;exitX=0.582;exitY=0.025;exitDx=0;exitDy=0;exitPerimeter=0;entryX=0.43;entryY=1.05;entryDx=0;entryDy=0;entryPerimeter=0;" edge="1" parent="1" source="BeVle-uXwxAkT7b3ATac-2" target="BeVle-uXwxAkT7b3ATac-1">
          <mxGeometry width="50" height="50" relative="1" as="geometry">
            <mxPoint x="260" y="220" as="sourcePoint" />
            <mxPoint x="310" y="170" as="targetPoint" />
          </mxGeometry>
        </mxCell>
        <mxCell id="BeVle-uXwxAkT7b3ATac-11" value="" style="endArrow=none;html=1;rounded=0;strokeColor=default;exitX=0.5;exitY=0;exitDx=0;exitDy=0;entryX=0.597;entryY=1.075;entryDx=0;entryDy=0;entryPerimeter=0;" edge="1" parent="1" source="BeVle-uXwxAkT7b3ATac-3" target="BeVle-uXwxAkT7b3ATac-1">
          <mxGeometry width="50" height="50" relative="1" as="geometry">
            <mxPoint x="288.94000000000005" y="251" as="sourcePoint" />
            <mxPoint x="400" y="180" as="targetPoint" />
            <Array as="points" />
          </mxGeometry>
        </mxCell>
        <mxCell id="BeVle-uXwxAkT7b3ATac-12" value="" style="endArrow=none;html=1;rounded=0;strokeColor=default;" edge="1" parent="1">
          <mxGeometry width="50" height="50" relative="1" as="geometry">
            <mxPoint x="160" y="340" as="sourcePoint" />
            <mxPoint x="200" y="280" as="targetPoint" />
          </mxGeometry>
        </mxCell>
        <mxCell id="BeVle-uXwxAkT7b3ATac-13" value="" style="endArrow=none;html=1;rounded=0;strokeColor=default;exitX=0.5;exitY=0;exitDx=0;exitDy=0;entryX=0.412;entryY=1;entryDx=0;entryDy=0;entryPerimeter=0;" edge="1" parent="1" source="BeVle-uXwxAkT7b3ATac-5" target="BeVle-uXwxAkT7b3ATac-2">
          <mxGeometry width="50" height="50" relative="1" as="geometry">
            <mxPoint x="220.00000000000006" y="361" as="sourcePoint" />
            <mxPoint x="314.06" y="280" as="targetPoint" />
          </mxGeometry>
        </mxCell>
        <mxCell id="BeVle-uXwxAkT7b3ATac-15" value="" style="endArrow=none;html=1;rounded=0;strokeColor=default;exitX=0.5;exitY=0;exitDx=0;exitDy=0;entryX=0.676;entryY=1.025;entryDx=0;entryDy=0;entryPerimeter=0;" edge="1" parent="1" source="BeVle-uXwxAkT7b3ATac-6" target="BeVle-uXwxAkT7b3ATac-2">
          <mxGeometry width="50" height="50" relative="1" as="geometry">
            <mxPoint x="250" y="350" as="sourcePoint" />
            <mxPoint x="250.03999999999996" y="290" as="targetPoint" />
          </mxGeometry>
        </mxCell>
        <mxCell id="BeVle-uXwxAkT7b3ATac-16" value="Pod" style="ellipse;whiteSpace=wrap;html=1;" vertex="1" parent="1">
          <mxGeometry x="390" y="340" width="80" height="50" as="geometry" />
        </mxCell>
        <mxCell id="BeVle-uXwxAkT7b3ATac-17" value="Pod" style="ellipse;whiteSpace=wrap;html=1;" vertex="1" parent="1">
          <mxGeometry x="480" y="340" width="80" height="50" as="geometry" />
        </mxCell>
        <mxCell id="BeVle-uXwxAkT7b3ATac-18" value="Pod" style="ellipse;whiteSpace=wrap;html=1;" vertex="1" parent="1">
          <mxGeometry x="570" y="340" width="80" height="50" as="geometry" />
        </mxCell>
        <mxCell id="BeVle-uXwxAkT7b3ATac-19" value="" style="endArrow=none;html=1;rounded=0;strokeColor=default;" edge="1" parent="1">
          <mxGeometry width="50" height="50" relative="1" as="geometry">
            <mxPoint x="430" y="340" as="sourcePoint" />
            <mxPoint x="470" y="280" as="targetPoint" />
          </mxGeometry>
        </mxCell>
        <mxCell id="BeVle-uXwxAkT7b3ATac-20" value="" style="endArrow=none;html=1;rounded=0;strokeColor=default;exitX=0.5;exitY=0;exitDx=0;exitDy=0;entryX=0.412;entryY=1;entryDx=0;entryDy=0;entryPerimeter=0;" edge="1" parent="1">
          <mxGeometry width="50" height="50" relative="1" as="geometry">
            <mxPoint x="519.5" y="340" as="sourcePoint" />
            <mxPoint x="519.54" y="280" as="targetPoint" />
          </mxGeometry>
        </mxCell>
        <mxCell id="BeVle-uXwxAkT7b3ATac-21" value="" style="endArrow=none;html=1;rounded=0;strokeColor=default;exitX=0.5;exitY=0;exitDx=0;exitDy=0;entryX=0.676;entryY=1.025;entryDx=0;entryDy=0;entryPerimeter=0;" edge="1" parent="1">
          <mxGeometry width="50" height="50" relative="1" as="geometry">
            <mxPoint x="605.0799999999999" y="339" as="sourcePoint" />
            <mxPoint x="560" y="280" as="targetPoint" />
          </mxGeometry>
        </mxCell>
      </root>
    </mxGraphModel>
  </diagram>
</mxfile>
